<svg id="Layer_1" data-name="Layer 1" xmlns="http://www.w3.org/2000/svg" xmlns:xlink="http://www.w3.org/1999/xlink" viewBox="0 0 256.5 53.48"><defs><style>.cls-1{fill:none;}.cls-2{clip-path:url(#clip-path);}.cls-3{fill:#007cbb;}.cls-4{fill:#fff;}</style><clipPath id="clip-path" transform="translate(0 0)"><rect class="cls-1" width="256.5" height="53.48"/></clipPath></defs><title>FDA_Logo_Blue</title><g class="cls-2"><path class="cls-3" d="M66.81,35.65h2.56c2.31,0,4.91,1.21,4.91,4.48s-2.56,4.56-5,4.56H66.81Zm1.6,7.68h.3c2.3,0,3.88-.79,3.88-3.08,0-2.11-1.28-3.23-3.44-3.23h-.74Z" transform="translate(0 0)"/><polygon class="cls-3" points="83.55 44.7 82.41 44.7 79.62 37.64 79.62 44.7 78.02 44.7 78.02 35.65 80.44 35.65 82.99 42.28 85.62 35.65 88.01 35.65 88.01 44.7 86.41 44.7 86.41 37.67 83.55 44.7"/><rect class="cls-3" x="92.14" y="35.65" width="1.6" height="9.05"/><polygon class="cls-3" points="103.96 44.7 99.48 38.59 99.48 44.7 97.88 44.7 97.88 35.65 99.29 35.65 103.79 41.78 103.79 35.65 105.39 35.65 105.39 44.7 103.96 44.7"/><rect class="cls-3" x="109.53" y="35.65" width="1.6" height="9.05"/><path class="cls-3" d="M118.28,36.88c-.75,0-1.34.38-1.34,1.06s.89,1,1.61,1.24c1.33.45,2.83,1,2.83,2.87,0,2-1.81,2.81-3.31,2.81a4.53,4.53,0,0,1-3.39-1.45l1.08-1a3.07,3.07,0,0,0,2.31,1.11c.8,0,1.6-.39,1.6-1.33s-.92-1.19-1.86-1.53c-1.22-.44-2.5-1-2.5-2.6,0-1.72,1.37-2.52,2.86-2.52a4.66,4.66,0,0,1,2.92,1l-.94,1.15a3,3,0,0,0-1.89-.78" transform="translate(0 0)"/><polygon class="cls-3" points="127.94 37.02 127.94 44.7 126.34 44.7 126.34 37.02 124.14 37.02 124.14 35.65 130.14 35.65 130.14 37.02 127.94 37.02"/><path class="cls-3" d="M136.15,35.65c1.43,0,3.22.74,3.22,2.66a2.58,2.58,0,0,1-2.07,2.53l2.8,3.85h-2L135.53,41H135v3.7h-1.6v-9Zm-.3,4c1,0,1.82-.37,1.82-1.28A1.38,1.38,0,0,0,136.11,37H135v2.61Z" transform="translate(0 0)"/><polygon class="cls-3" points="156.63 37.02 156.63 44.7 155.03 44.7 155.03 37.02 152.84 37.02 152.84 35.65 158.83 35.65 158.83 37.02 156.63 37.02"/><rect class="cls-3" x="162.05" y="35.65" width="1.6" height="9.05"/><path class="cls-3" d="M172.08,44.86a4.68,4.68,0,1,1,4.7-4.68,4.64,4.64,0,0,1-4.7,4.68m0-7.95a3.28,3.28,0,1,0,3,3.27,3.08,3.08,0,0,0-3-3.27" transform="translate(0 0)"/><polygon class="cls-3" points="186.59 44.7 182.12 38.59 182.12 44.7 180.52 44.7 180.52 35.65 181.93 35.65 186.42 41.78 186.42 35.65 188.03 35.65 188.03 44.7 186.59 44.7"/><polygon class="cls-3" points="61.71 44.7 63.55 44.7 60.12 35.65 58.79 35.65 55.18 44.7 56.94 44.7 57.59 42.92 60.07 42.92 59.59 41.57 58.08 41.57 59.34 38.1 59.36 38.1 61.71 44.7"/><polygon class="cls-3" points="149.24 44.7 151.08 44.7 147.65 35.65 146.32 35.65 142.71 44.7 144.47 44.7 145.12 42.92 147.6 42.92 147.12 41.57 145.61 41.57 146.88 38.1 146.89 38.1 149.24 44.7"/><path class="cls-3" d="M62.63,26.63h0a6.14,6.14,0,0,0,6.29-6.34V8.7H65.41V20a3.07,3.07,0,0,1-.78,2.24,2.66,2.66,0,0,1-2,.78,2.6,2.6,0,0,1-2-.79A3,3,0,0,1,59.87,20V8.7H56.35V20.3a6,6,0,0,0,1.85,4.56,6.21,6.21,0,0,0,4.44,1.77" transform="translate(0 0)"/><rect class="cls-3" x="70.72" y="23.04" width="3.39" height="3.45"/><rect class="cls-3" x="92.09" y="23.04" width="3.39" height="3.45"/><polygon class="cls-3" points="105.5 26.46 109.02 26.46 109.02 19.31 114.28 19.31 114.28 15.99 109.02 15.99 109.02 12.11 116.92 12.11 116.92 8.66 105.5 8.66 105.5 26.46"/><path class="cls-3" d="M130.51,11.83A6.1,6.1,0,0,0,125,8.52a6,6,0,0,0-3.49,1,6.2,6.2,0,0,0-2,2.22,5.27,5.27,0,0,0-.61,1.79,29,29,0,0,0-.17,4,28.85,28.85,0,0,0,.17,4,5.23,5.23,0,0,0,.26,1c.1.24.21.48.34.76A6.36,6.36,0,0,0,125,26.6h0a6.19,6.19,0,0,0,3.51-1.06,5.84,5.84,0,0,0,2-2.18,4.51,4.51,0,0,0,.65-1.84,33.53,33.53,0,0,0,.15-4,33.45,33.45,0,0,0-.15-4,4.35,4.35,0,0,0-.61-1.75m-2.76,5.73a21.23,21.23,0,0,1-.16,3.24A2.55,2.55,0,0,1,127,22a2.26,2.26,0,0,1-.82.69,2.61,2.61,0,0,1-2.51,0,2.45,2.45,0,0,1-.86-.72,2.35,2.35,0,0,1-.51-1.17,19.85,19.85,0,0,1-.17-3.24,20.22,20.22,0,0,1,.17-3.27,2.3,2.3,0,0,1,.54-1.17,2.58,2.58,0,0,1,.85-.71,2.79,2.79,0,0,1,1.24-.29,3,3,0,0,1,1.26.29,2.56,2.56,0,0,1,.84.75,2.46,2.46,0,0,1,.53,1.14,21.91,21.91,0,0,1,.16,3.27" transform="translate(0 0)"/><path class="cls-3" d="M145.91,11.83a6.1,6.1,0,0,0-5.55-3.31,6,6,0,0,0-3.49,1,6.2,6.2,0,0,0-2,2.22,5.27,5.27,0,0,0-.61,1.79,29,29,0,0,0-.17,4,28.85,28.85,0,0,0,.17,4,5.23,5.23,0,0,0,.26,1c.1.24.21.48.34.76a6.36,6.36,0,0,0,5.54,3.3h0a6.19,6.19,0,0,0,3.51-1.06,5.84,5.84,0,0,0,2-2.18,4.51,4.51,0,0,0,.65-1.84,33.53,33.53,0,0,0,.15-4,33.45,33.45,0,0,0-.15-4,4.35,4.35,0,0,0-.62-1.75m-2.76,5.73A21.23,21.23,0,0,1,143,20.8a2.55,2.55,0,0,1-.57,1.21,2.26,2.26,0,0,1-.82.69,2.61,2.61,0,0,1-2.51,0,2.45,2.45,0,0,1-.87-.72,2.35,2.35,0,0,1-.51-1.17,19.85,19.85,0,0,1-.17-3.24,20.22,20.22,0,0,1,.17-3.27,2.31,2.31,0,0,1,.54-1.17,2.6,2.6,0,0,1,.85-.71,2.79,2.79,0,0,1,1.24-.29,3,3,0,0,1,1.26.29,2.56,2.56,0,0,1,.84.75,2.46,2.46,0,0,1,.53,1.14,21.91,21.91,0,0,1,.16,3.27" transform="translate(0 0)"/><path class="cls-3" d="M161.6,11.74a5.94,5.94,0,0,0-5.4-3.09H150v17.8h6a6,6,0,0,0,3.36-.9,6.27,6.27,0,0,0,2.16-2.13,9.18,9.18,0,0,0,.49-.93,4.81,4.81,0,0,0,.3-1.08,25.26,25.26,0,0,0,.2-3.86,34.67,34.67,0,0,0-.13-3.65,5.66,5.66,0,0,0-.81-2.17m-8.08.37H156a2.71,2.71,0,0,1,2.38,1.23,2.42,2.42,0,0,1,.51,1.24c.07.61.1,1.64.1,3.07s0,2.47-.09,3a2.38,2.38,0,0,1-.44,1.15A2.78,2.78,0,0,1,155.92,23h-2.4Z" transform="translate(0 0)"/><path class="cls-3" d="M208.85,11.74a5.94,5.94,0,0,0-5.4-3.09h-6.21v17.8h6a6,6,0,0,0,3.36-.9,6.27,6.27,0,0,0,2.16-2.13,9.39,9.39,0,0,0,.49-.93,4.81,4.81,0,0,0,.3-1.08,25.26,25.26,0,0,0,.2-3.86,34.67,34.67,0,0,0-.13-3.65,5.66,5.66,0,0,0-.81-2.17m-8.08.37h2.52a2.71,2.71,0,0,1,2.38,1.23,2.42,2.42,0,0,1,.51,1.24c.07.61.1,1.64.1,3.07s0,2.47-.09,3a2.38,2.38,0,0,1-.44,1.15A2.78,2.78,0,0,1,203.17,23h-2.4Z" transform="translate(0 0)"/><path class="cls-3" d="M225.43,13.85a5,5,0,0,0-1.79-4A5.42,5.42,0,0,0,220,8.66h-6.87v17.8h3.52V19.31h2.27l3.35,7.15h4.12l-3.89-7.7a5.14,5.14,0,0,0,2.94-4.91M216.64,12H220a2.28,2.28,0,0,1,1.49.41,1.74,1.74,0,0,1,.6,1.47A2,2,0,0,1,219.83,16h-3.19Z" transform="translate(0 0)"/><path class="cls-3" d="M237.29,20a3.07,3.07,0,0,1-.78,2.24,2.66,2.66,0,0,1-2,.78,2.6,2.6,0,0,1-2-.79,3,3,0,0,1-.79-2.22V8.66h-3.52V20.26a6,6,0,0,0,1.85,4.56,6.22,6.22,0,0,0,4.44,1.77h0a6.13,6.13,0,0,0,6.29-6.34V8.66h-3.52Z" transform="translate(0 0)"/><path class="cls-3" d="M179.56,16.76l3,3.57a4.06,4.06,0,0,0,.68-1.49,9.16,9.16,0,0,0,.24-1.63h3.09c0,.34-.05.67-.09,1a11.39,11.39,0,0,1-.5,2.29,6.29,6.29,0,0,1-1.23,2.15l-.08.11,3.19,3.76c0,.05-.08,0-.12,0h-3.87a.24.24,0,0,1-.21-.1l-1.15-1.37-.07-.09-.81.6a6,6,0,0,1-2.79,1,8.63,8.63,0,0,1-3.32-.21A4.58,4.58,0,0,1,172,22.51a5.49,5.49,0,0,1,0-2.23,5.18,5.18,0,0,1,1.16-2.18,9.43,9.43,0,0,1,1.8-1.53l.14-.1-.46-.56a5.66,5.66,0,0,1-1.21-2.3,4,4,0,0,1,2.42-4.71A6.11,6.11,0,0,1,179,8.55a4.39,4.39,0,0,1,2.41,1.08,3.7,3.7,0,0,1,1.16,2,3.88,3.88,0,0,1-.11,2.42,3.82,3.82,0,0,1-.94,1.26,18,18,0,0,1-1.72,1.32l-.21.16m.88,5.91-3.57-4.2a8.25,8.25,0,0,0-1.15,1,2.38,2.38,0,0,0-.66,1.73,2.45,2.45,0,0,0,1.78,2.39,3.53,3.53,0,0,0,2.67-.25,4,4,0,0,0,.94-.67m-2.65-7.91a8.34,8.34,0,0,0,1.35-1,1.42,1.42,0,0,0,.41-1.35,1.53,1.53,0,0,0-2.37-.87,1.51,1.51,0,0,0-.45,1.77,7.33,7.33,0,0,0,1.06,1.46" transform="translate(0 0)"/><path class="cls-3" d="M250.17,16.19v3.45H253V20a3,3,0,0,1-.82,2.19,2.56,2.56,0,0,1-2,.84,2.34,2.34,0,0,1-1.25-.32A2.45,2.45,0,0,1,248,22a2.35,2.35,0,0,1-.51-1.17,19.86,19.86,0,0,1-.17-3.24,20.21,20.21,0,0,1,.17-3.27,2.32,2.32,0,0,1,.54-1.17,2.59,2.59,0,0,1,.85-.71,2.79,2.79,0,0,1,1.23-.29,2.59,2.59,0,0,1,1.65.56,3.15,3.15,0,0,1,.94,1.49l.11.38h3.65l-.12-.63a6.93,6.93,0,0,0-2-3.81,6.37,6.37,0,0,0-7.68-.54,6.21,6.21,0,0,0-2,2.23,5.23,5.23,0,0,0-.61,1.78,28.89,28.89,0,0,0-.17,4,28.85,28.85,0,0,0,.17,4,5.35,5.35,0,0,0,.26,1c.1.24.21.48.34.76a6.36,6.36,0,0,0,5.54,3.3h0a6.42,6.42,0,0,0,3.08-.8v.7h3.25V16.19h-6.33Z" transform="translate(0 0)"/><path class="cls-3" d="M84.37,11.67c-1.2,0-2.27.6-2.27,1.75,0,1.35,1.65,1.72,3,2.2,2.47.85,5.45,2,5.45,5.67S87,26.71,83.92,26.71a9,9,0,0,1-6.7-2.92l2.37-2.32c1.42,1.37,2.52,2.2,4.35,2.2,1.4,0,2.77-.67,2.77-2.22s-1.6-2.07-3.37-2.72c-2.27-.85-4.82-1.85-4.82-5.2s2.82-4.9,5.72-4.9A9.1,9.1,0,0,1,90,10.69l-2,2.55a5.92,5.92,0,0,0-3.62-1.57" transform="translate(0 0)"/><rect class="cls-3" width="44.68" height="53.48"/><polygon class="cls-4" points="31.12 21.82 34.71 21.82 33.97 19.26 31.93 19.26 33.74 13.92 37.52 25.26 40.73 25.26 35.14 10.38 32.18 10.38 26.59 25.26 29.93 25.26 31.12 21.82"/><path class="cls-4" d="M7.56,19.12h4.19V16.45H7.56V13H20.16a4.49,4.49,0,0,1,1.61.31A3.18,3.18,0,0,1,23,14.3a3.85,3.85,0,0,1,.7,1.49,8.24,8.24,0,0,1,.22,2,7.31,7.31,0,0,1-.25,2,4.12,4.12,0,0,1-.78,1.53,3.39,3.39,0,0,1-1.39,1,5.52,5.52,0,0,1-2.06.34h-2V16.48H14.34v8.78h5a10.26,10.26,0,0,0,3.25-.48,6.18,6.18,0,0,0,4-3.8,9.13,9.13,0,0,0,.53-3.25,7.35,7.35,0,0,0-1.91-5.5,7.07,7.07,0,0,0-4.77-1.86h-16V25.26H7.56Z" transform="translate(0 0)"/></g></svg>